<svg width="24" height="24" viewBox="0 0 24 24" fill="none" xmlns="http://www.w3.org/2000/svg">
<path d="M0 11.5C0 6.0792 0 3.368 1.684 1.684C3.368 0 6.08 0 11.5 0H12.5C17.9208 0 20.632 0 22.316 1.684C24 3.368 24 6.08 24 11.5V12.5C24 17.9208 24 20.632 22.316 22.316C20.632 24 17.92 24 12.5 24H11.5C6.0792 24 3.368 24 1.684 22.316C0 20.632 0 17.92 0 12.5V11.5Z" fill="#030316"/>
<path d="M15.7894 13.326C16.3712 12.929 16.3712 12.071 15.7894 11.674L10.3136 7.93773C9.64984 7.48482 8.75 7.96019 8.75 8.76376L8.75 16.2362C8.75 17.0398 9.64984 17.5152 10.3136 17.0623L15.7894 13.326Z" fill="white"/>
</svg>
