<svg width="70" height="70" viewBox="0 0 70 70" fill="none" xmlns="http://www.w3.org/2000/svg">
<path d="M34.3414 3.29185C34.5642 2.67556 35.4358 2.67556 35.6586 3.29185C36.1604 4.6796 38.0706 4.81318 38.7607 3.50876C39.0671 2.92949 39.9302 3.05079 40.0651 3.69209C40.3689 5.13618 42.2419 5.5343 43.1068 4.33862C43.4909 3.80764 44.3287 4.04787 44.3731 4.70171C44.4729 6.17402 46.2723 6.82894 47.2952 5.76527C47.7494 5.29291 48.5456 5.64741 48.4986 6.30105C48.3925 7.77293 50.0832 8.6719 51.2442 7.76094C51.7598 7.35639 52.4989 7.81826 52.3613 8.45898C52.0515 9.90179 53.6006 11.0273 54.8771 10.2868C55.4439 9.95792 56.1116 10.5182 55.8862 11.1335C55.3785 12.5191 56.756 13.8493 58.123 13.2936C58.7301 13.0469 59.3133 13.6946 59.0045 14.2726C58.3089 15.5741 59.4878 17.083 60.9189 16.723C61.5545 16.5631 62.0419 17.2857 61.6556 17.8151C60.7857 19.0071 61.7431 20.6654 63.2104 20.5081C63.862 20.4382 64.244 21.2216 63.7878 21.692C62.7605 22.7514 63.4778 24.5268 64.9527 24.5752C65.6077 24.5967 65.877 25.4257 65.3598 25.828C64.195 26.7341 64.6583 28.5921 66.1121 28.8453C66.7577 28.9577 66.909 29.8161 66.3408 30.1426C65.0613 30.8777 65.2614 32.7821 66.6659 33.2352C67.2895 33.4364 67.32 34.3074 66.7118 34.5516C65.3424 35.1016 65.2756 37.0153 66.6033 37.6594C67.1929 37.9454 67.1018 38.8122 66.4656 38.9694C65.033 39.3234 64.7005 41.2092 65.9256 42.0318C66.4697 42.3971 66.2588 43.2428 65.6069 43.31C64.139 43.4611 63.5473 45.2823 64.646 46.2674C65.1339 46.7049 64.8074 47.513 64.1526 47.4888C62.6779 47.4342 61.8385 49.1552 62.7894 50.2837C63.2117 50.7848 62.7759 51.5396 62.1307 51.4245C60.678 51.1652 59.6072 52.7527 60.3919 54.0025C60.7403 54.5575 60.2037 55.2443 59.5809 55.0405C58.1784 54.5815 56.8971 56.0046 57.5001 57.3514C57.7679 57.9495 57.141 58.555 56.5526 58.2665C55.2276 57.6168 53.7607 58.8476 54.1704 60.2653C54.3524 60.8949 53.6473 61.4072 53.1047 61.0396C51.8831 60.2118 50.2592 61.2265 50.4676 62.6874C50.5602 63.3362 49.7906 63.7454 49.3045 63.3059C48.2099 62.3161 46.4607 63.095 46.4637 64.5706C46.4651 65.226 45.6461 65.5241 45.2259 65.0212C44.2797 63.8887 42.4391 64.4166 42.2367 65.8783C42.1469 66.5275 41.2944 66.7087 40.9483 66.1522C40.1689 64.8991 38.2727 65.1656 37.8689 66.585C37.6896 67.2153 36.8201 67.2761 36.5548 66.6769C35.9574 65.3275 34.0426 65.3275 33.4452 66.6769C33.1799 67.2761 32.3104 67.2153 32.1311 66.585C31.7273 65.1656 29.8311 64.8991 29.0517 66.1522C28.7056 66.7087 27.8531 66.5275 27.7633 65.8783C27.5609 64.4166 25.7203 63.8888 24.7741 65.0212C24.3539 65.5241 23.5349 65.226 23.5363 64.5706C23.5393 63.095 21.79 62.3161 20.6955 63.3059C20.2094 63.7454 19.4398 63.3362 19.5324 62.6874C19.7408 61.2265 18.1169 60.2118 16.8953 61.0396C16.3527 61.4072 15.6476 60.8949 15.8296 60.2653C16.2393 58.8476 14.7724 57.6168 13.4474 58.2665C12.859 58.555 12.2321 57.9495 12.4999 57.3514C13.1029 56.0046 11.8216 54.5815 10.4191 55.0405C9.7963 55.2443 9.2597 54.5575 9.60814 54.0025C10.3928 52.7527 9.32199 51.1652 7.86925 51.4245C7.22411 51.5396 6.78832 50.7848 7.21062 50.2837C8.16154 49.1552 7.32213 47.4342 5.84744 47.4888C5.19255 47.513 4.86605 46.7049 5.35398 46.2674C6.4527 45.2823 5.86098 43.4611 4.39305 43.31C3.74116 43.2428 3.53031 42.3971 4.07437 42.0318C5.29951 41.2092 4.967 39.3234 3.53439 38.9694C2.89819 38.8122 2.80709 37.9454 3.3967 37.6594C4.7244 37.0153 4.65757 35.1016 3.28818 34.5516C2.68004 34.3074 2.71046 33.4364 3.33415 33.2352L3.18064 32.7593L3.33415 33.2352C4.73857 32.7821 4.93873 30.8777 3.65919 30.1426C3.09097 29.8161 3.24232 28.9577 3.88793 28.8453C5.34175 28.5921 5.80499 26.7341 4.64022 25.828C4.12297 25.4257 4.3923 24.5967 5.04728 24.5752C6.52219 24.5268 7.2395 22.7514 6.21217 21.692C5.75595 21.2216 6.13803 20.4382 6.78963 20.5081C8.25691 20.6654 9.21434 19.0071 8.34444 17.8151C7.95814 17.2857 8.44552 16.5631 9.08105 16.723C10.5122 17.083 11.6911 15.5741 10.9955 14.2726C10.6867 13.6946 11.2699 13.0469 11.877 13.2936C13.244 13.8493 14.6215 12.5191 14.1138 11.1335C13.8884 10.5182 14.5561 9.95792 15.1229 10.2868C16.3994 11.0273 17.9485 9.90179 17.6387 8.45898C17.5011 7.81826 18.2402 7.35639 18.7558 7.76094C19.9168 8.6719 21.6075 7.77293 21.5014 6.30105C21.4544 5.64741 22.2506 5.2929 22.7048 5.76527C23.7277 6.82894 25.5271 6.17402 25.6269 4.70171C25.6713 4.04788 26.5091 3.80763 26.8932 4.33862C27.7581 5.5343 29.6311 5.13618 29.9348 3.69209C30.0698 3.05079 30.9329 2.92949 31.2393 3.50876C31.9294 4.81318 33.8396 4.6796 34.3414 3.29185Z" stroke="#030316"/>
<path d="M35.3536 20.6464C35.1583 20.4512 34.8417 20.4512 34.6464 20.6464L31.4645 23.8284C31.2692 24.0237 31.2692 24.3403 31.4645 24.5355C31.6597 24.7308 31.9763 24.7308 32.1716 24.5355L35 21.7071L37.8284 24.5355C38.0237 24.7308 38.3403 24.7308 38.5355 24.5355C38.7308 24.3403 38.7308 24.0237 38.5355 23.8284L35.3536 20.6464ZM34.5 21L34.5 48L35.5 48L35.5 21L34.5 21Z" fill="#030316"/>
</svg>
