<svg width="24" height="24" viewBox="0 0 24 24" fill="none" xmlns="http://www.w3.org/2000/svg">
<path fill-rule="evenodd" clip-rule="evenodd" d="M1.684 1.684C0 3.368 0 6.0792 0 11.5V12.5C0 17.92 0 20.632 1.684 22.316C3.368 24 6.0792 24 11.5 24H12.5C17.92 24 20.632 24 22.316 22.316C24 20.632 24 17.9208 24 12.5V11.5C24 6.08 24 3.368 22.316 1.684C20.632 0 17.9208 0 12.5 0H11.5C6.08 0 3.368 0 1.684 1.684ZM4.75031 7.5H6.49991C6.94711 7.5 7.11511 7.696 7.28311 8.1808C8.13911 10.6736 9.58231 12.8528 10.1751 12.8528C10.3983 12.8528 10.4999 12.7504 10.4999 12.1848V9.608C10.4598 8.87446 10.2036 8.55715 10.0137 8.32214C9.89656 8.17705 9.80471 8.06333 9.80471 7.9024C9.80471 7.7064 9.97191 7.5 10.2495 7.5H12.9999C13.3711 7.5 13.4999 7.6984 13.4999 8.1432V11.6104C13.4999 11.9808 13.6607 12.1112 13.7719 12.1112C13.9943 12.1112 14.1799 11.9808 14.5879 11.5728C15.8487 10.164 16.7383 7.9952 16.7383 7.9952C16.8495 7.7352 17.0551 7.5 17.4999 7.5H19.2495C19.7791 7.5 19.8911 7.7728 19.7791 8.1432C19.5567 9.1632 17.4247 12.1664 17.4247 12.1664C17.2391 12.4632 17.1647 12.6112 17.4247 12.9448C17.5165 13.0733 17.7122 13.2652 17.936 13.4846C18.1649 13.7089 18.4232 13.9621 18.6295 14.2056C19.3815 15.0512 19.9479 15.7648 20.1055 16.256C20.2503 16.7496 19.9999 17 19.4999 17H17.7495C17.2809 17 17.0451 16.7376 16.5352 16.17C16.3191 15.9295 16.0538 15.6342 15.7007 15.2808C14.6615 14.28 14.2175 14.1504 13.9575 14.1504C13.6055 14.1504 13.4999 14.2504 13.4999 14.7504V16.32C13.4999 16.7496 13.3623 17 12.2495 17C10.3959 17 8.35831 15.8744 6.91271 13.7976C4.74311 10.7576 4.15031 8.4584 4.15031 7.9952C4.15031 7.7352 4.25031 7.5 4.75031 7.5Z" fill="white"/>
</svg>
